<svg xmlns="http://www.w3.org/2000/svg" width="1200" height="630" viewBox="0 0 1200 630" role="img" aria-labelledby="title desc">
    <title id="title">LHS Archive</title>
    <desc id="desc">A charcoal and neon green nostalgic scrapbook archive preview.</desc>
    <defs>
        <filter id="shadow" x="-20%" y="-20%" width="140%" height="140%">
            <feDropShadow dx="0" dy="18" stdDeviation="18" flood-color="#000" flood-opacity="0.55"/>
        </filter>
        <linearGradient id="glow" x1="0" x2="1" y1="0" y2="1">
            <stop offset="0" stop-color="#a8f04a" stop-opacity="0.18"/>
            <stop offset="1" stop-color="#d0bcff" stop-opacity="0.1"/>
        </linearGradient>
    </defs>
    <rect width="1200" height="630" fill="#121414"/>
    <rect width="1200" height="630" fill="url(#glow)"/>
    <g opacity="0.16">
        <path d="M0 94H1200M0 210H1200M0 326H1200M0 442H1200M0 558H1200" stroke="#ecffce"/>
        <path d="M110 0V630M286 0V630M462 0V630M638 0V630M814 0V630M990 0V630" stroke="#ecffce"/>
    </g>
    <g filter="url(#shadow)" transform="translate(130 98) rotate(-8)">
        <rect width="220" height="270" rx="4" fill="#f3f3f3"/>
        <rect x="24" y="28" width="172" height="164" fill="#1e2020"/>
        <circle cx="76" cy="86" r="30" fill="#a8f04a" opacity="0.78"/>
        <path d="M38 166L92 112L133 150L164 126L196 166Z" fill="#d0bcff" opacity="0.55"/>
    </g>
    <g filter="url(#shadow)" transform="translate(870 112) rotate(7)">
        <rect width="230" height="282" rx="4" fill="#f3f3f3"/>
        <rect x="25" y="30" width="180" height="170" fill="#1e2020"/>
        <path d="M34 178L80 118L120 158L150 132L204 178Z" fill="#a8f04a" opacity="0.62"/>
        <circle cx="160" cy="82" r="28" fill="#ecffce" opacity="0.62"/>
    </g>
    <g transform="translate(96 444) rotate(-3)" opacity="0.84">
        <rect width="166" height="54" fill="#a8f04a"/>
        <text x="22" y="35" fill="#121414" font-family="Arial, sans-serif" font-size="19" font-weight="700">ABSURD</text>
    </g>
    <text x="600" y="260" fill="#a8f04a" font-family="Impact, Arial Black, sans-serif" font-size="126" text-anchor="middle" letter-spacing="2">LHS ARCHIVE</text>
    <text x="600" y="323" fill="#ecffce" font-family="Arial, sans-serif" font-size="28" font-weight="700" text-anchor="middle">Tempat kecil buat nyimpen semua hal yang pernah rame bareng.</text>
    <text x="600" y="384" fill="#d0bcff" font-family="Arial, sans-serif" font-size="18" font-weight="700" text-anchor="middle" letter-spacing="3">SCRAPBOOK DIGITAL • POLAROID MOMENTS • ARCHIVED HUMANS</text>
</svg>
